<?xml version="1.0" encoding="UTF-8" standalone="no"?>
<!DOCTYPE svg PUBLIC "-//W3C//DTD SVG 1.1//EN" "http://www.w3.org/Graphics/SVG/1.1/DTD/svg11.dtd">
<svg xmlns="http://www.w3.org/2000/svg" version="1.1" xmlns:xl="http://www.w3.org/1999/xlink" xmlns:dc="http://purl.org/dc/elements/1.1/" viewBox="1252 1087 632.697 361" width="632.697" height="361">
  <defs/>
  <g id="Canvas_1" fill="none" stroke-opacity="1" stroke-dasharray="none" stroke="none" fill-opacity="1">
    <title>Canvas 1</title>
    <g id="Canvas_1_Layer_1">
      <title>Layer 1</title>
      <g id="Graphic_86">
        <path d="M 1352.697 1157 L 1432 1157 C 1443.0457 1157 1452 1148.0457 1452 1137 C 1452 1125.9543 1443.0457 1117 1432 1117 L 1352.697 1117 C 1341.6513 1117 1332.697 1125.9543 1332.697 1137 C 1332.697 1148.0457 1341.6513 1157 1352.697 1157 Z" fill="#ff8900"/>
        <path d="M 1352.697 1157 L 1432 1157 C 1443.0457 1157 1452 1148.0457 1452 1137 C 1452 1125.9543 1443.0457 1117 1432 1117 L 1352.697 1117 C 1341.6513 1117 1332.697 1125.9543 1332.697 1137 C 1332.697 1148.0457 1341.6513 1157 1352.697 1157 Z" stroke="black" stroke-linecap="round" stroke-linejoin="round" stroke-width="8"/>
      </g>
      <g id="Graphic_87">
        <path d="M 1437.1038 1166.4155 L 1314.9144 1339.5172 C 1308.5446 1348.5411 1310.6961 1361.0203 1319.7201 1367.3902 C 1328.7441 1373.76 1341.2233 1371.6085 1347.5931 1362.5845 L 1469.7825 1189.4828 C 1476.1524 1180.4589 1474.0008 1167.9797 1464.9768 1161.6098 C 1455.9529 1155.24 1443.4737 1157.3915 1437.1038 1166.4155 Z" fill="#ff8900"/>
        <path d="M 1437.1038 1166.4155 L 1314.9144 1339.5172 C 1308.5446 1348.5411 1310.6961 1361.0203 1319.7201 1367.3902 C 1328.7441 1373.76 1341.2233 1371.6085 1347.5931 1362.5845 L 1469.7825 1189.4828 C 1476.1524 1180.4589 1474.0008 1167.9797 1464.9768 1161.6098 C 1455.9529 1155.24 1443.4737 1157.3915 1437.1038 1166.4155 Z" stroke="black" stroke-linecap="round" stroke-linejoin="round" stroke-width="8"/>
      </g>
      <g id="Graphic_88">
        <path d="M 1352.697 1412 L 1455 1412 C 1466.0457 1412 1475 1403.0457 1475 1392 C 1475 1380.9543 1466.0457 1372 1455 1372 L 1352.697 1372 C 1341.6513 1372 1332.697 1380.9543 1332.697 1392 C 1332.697 1403.0457 1341.6513 1412 1352.697 1412 Z" fill="#ff8900"/>
        <path d="M 1352.697 1412 L 1455 1412 C 1466.0457 1412 1475 1403.0457 1475 1392 C 1475 1380.9543 1466.0457 1372 1455 1372 L 1352.697 1372 C 1341.6513 1372 1332.697 1380.9543 1332.697 1392 C 1332.697 1403.0457 1341.6513 1412 1352.697 1412 Z" stroke="black" stroke-linecap="round" stroke-linejoin="round" stroke-width="8"/>
      </g>
      <g id="Graphic_89">
        <path d="M 1814.3485 1187 L 1814.3485 1348 C 1814.3485 1359.0457 1823.3028 1368 1834.3485 1368 C 1845.3942 1368 1854.3485 1359.0457 1854.3485 1348 L 1854.3485 1187 C 1854.3485 1175.9543 1845.3942 1167 1834.3485 1167 C 1823.3028 1167 1814.3485 1175.9543 1814.3485 1187 Z" fill="#ffbf00"/>
        <path d="M 1814.3485 1187 L 1814.3485 1348 C 1814.3485 1359.0457 1823.3028 1368 1834.3485 1368 C 1845.3942 1368 1854.3485 1359.0457 1854.3485 1348 L 1854.3485 1187 C 1854.3485 1175.9543 1845.3942 1167 1834.3485 1167 C 1823.3028 1167 1814.3485 1175.9543 1814.3485 1187 Z" stroke="black" stroke-linecap="round" stroke-linejoin="round" stroke-width="8"/>
      </g>
      <g id="Graphic_90">
        <path d="M 1706.6246 1367.1598 L 1823.472 1189.8507 C 1829.55 1180.6276 1827.0005 1168.2236 1817.7774 1162.1456 C 1808.5544 1156.0676 1796.1504 1158.6171 1790.0723 1167.8402 L 1673.225 1345.1493 C 1667.147 1354.3724 1669.6965 1366.7764 1678.9195 1372.8544 C 1688.1426 1378.9324 1700.5466 1376.3829 1706.6246 1367.1598 Z" fill="#ffbf00"/>
        <path d="M 1706.6246 1367.1598 L 1823.472 1189.8507 C 1829.55 1180.6276 1827.0005 1168.2236 1817.7774 1162.1456 C 1808.5544 1156.0676 1796.1504 1158.6171 1790.0723 1167.8402 L 1673.225 1345.1493 C 1667.147 1354.3724 1669.6965 1366.7764 1678.9195 1372.8544 C 1688.1426 1378.9324 1700.5466 1376.3829 1706.6246 1367.1598 Z" stroke="black" stroke-linecap="round" stroke-linejoin="round" stroke-width="8"/>
      </g>
      <g id="Graphic_91">
        <path d="M 1642.3485 1187 L 1642.3485 1348 C 1642.3485 1359.0457 1651.3028 1368 1662.3485 1368 C 1673.3942 1368 1682.3485 1359.0457 1682.3485 1348 L 1682.3485 1187 C 1682.3485 1175.9543 1673.3942 1167 1662.3485 1167 C 1651.3028 1167 1642.3485 1175.9543 1642.3485 1187 Z" fill="#ffbf00"/>
        <path d="M 1642.3485 1187 L 1642.3485 1348 C 1642.3485 1359.0457 1651.3028 1368 1662.3485 1368 C 1673.3942 1368 1682.3485 1359.0457 1682.3485 1348 L 1682.3485 1187 C 1682.3485 1175.9543 1673.3942 1167 1662.3485 1167 C 1651.3028 1167 1642.3485 1175.9543 1642.3485 1187 Z" stroke="black" stroke-linecap="round" stroke-linejoin="round" stroke-width="8"/>
      </g>
      <g id="Graphic_92">
        <path d="M 1548.6494 1359.8178 L 1653.1093 1190.1536 C 1658.9004 1180.7477 1655.97 1168.4281 1646.5641 1162.637 C 1637.1582 1156.846 1624.8386 1159.7763 1619.0476 1169.1822 L 1514.5877 1338.8464 C 1508.7966 1348.2523 1511.727 1360.5719 1521.1329 1366.363 C 1530.5387 1372.154 1542.8583 1369.2237 1548.6494 1359.8178 Z" fill="#ffbf00"/>
        <path d="M 1548.6494 1359.8178 L 1653.1093 1190.1536 C 1658.9004 1180.7477 1655.97 1168.4281 1646.5641 1162.637 C 1637.1582 1156.846 1624.8386 1159.7763 1619.0476 1169.1822 L 1514.5877 1338.8464 C 1508.7966 1348.2523 1511.727 1360.5719 1521.1329 1366.363 C 1530.5387 1372.154 1542.8583 1369.2237 1548.6494 1359.8178 Z" stroke="black" stroke-linecap="round" stroke-linejoin="round" stroke-width="8"/>
      </g>
      <g id="Graphic_67">
        <ellipse cx="1302.3485" cy="1137" rx="46.3485589088168" ry="46.0000735034873" fill="#00bcff"/>
        <ellipse cx="1302.3485" cy="1137" rx="46.3485589088168" ry="46.0000735034873" stroke="black" stroke-linecap="round" stroke-linejoin="round" stroke-width="8"/>
      </g>
      <g id="Graphic_68">
        <ellipse cx="1482.3485" cy="1137" rx="46.3485589088166" ry="46.0000735034873" fill="#00bcff"/>
        <ellipse cx="1482.3485" cy="1137" rx="46.3485589088166" ry="46.0000735034873" stroke="black" stroke-linecap="round" stroke-linejoin="round" stroke-width="8"/>
      </g>
      <g id="Graphic_71">
        <ellipse cx="1302.3485" cy="1392" rx="46.3485589088168" ry="46.0000735034873" fill="#00bcff"/>
        <ellipse cx="1302.3485" cy="1392" rx="46.3485589088168" ry="46.0000735034873" stroke="black" stroke-linecap="round" stroke-linejoin="round" stroke-width="8"/>
      </g>
      <g id="Graphic_74">
        <ellipse cx="1505.3485" cy="1392" rx="46.3485589088169" ry="46.0000735034873" fill="#00bcff"/>
        <ellipse cx="1505.3485" cy="1392" rx="46.3485589088169" ry="46.0000735034873" stroke="black" stroke-linecap="round" stroke-linejoin="round" stroke-width="8"/>
      </g>
      <g id="Graphic_76">
        <ellipse cx="1662.3485" cy="1137" rx="46.3485589088168" ry="46.0000735034873" fill="#00b400"/>
        <ellipse cx="1662.3485" cy="1137" rx="46.3485589088168" ry="46.0000735034873" stroke="black" stroke-linecap="round" stroke-linejoin="round" stroke-width="8"/>
      </g>
      <g id="Graphic_78">
        <ellipse cx="1662.3485" cy="1398" rx="46.3485589088168" ry="46.0000735034873" fill="#00b400"/>
        <ellipse cx="1662.3485" cy="1398" rx="46.3485589088168" ry="46.0000735034873" stroke="black" stroke-linecap="round" stroke-linejoin="round" stroke-width="8"/>
      </g>
      <g id="Graphic_80">
        <ellipse cx="1834.3485" cy="1137" rx="46.3485589088168" ry="46.0000735034873" fill="#00b400"/>
        <ellipse cx="1834.3485" cy="1137" rx="46.3485589088168" ry="46.0000735034873" stroke="black" stroke-linecap="round" stroke-linejoin="round" stroke-width="8"/>
      </g>
      <g id="Graphic_82">
        <ellipse cx="1834.3485" cy="1398" rx="46.3485589088168" ry="46.0000735034873" fill="#00b400"/>
        <ellipse cx="1834.3485" cy="1398" rx="46.3485589088168" ry="46.0000735034873" stroke="black" stroke-linecap="round" stroke-linejoin="round" stroke-width="8"/>
      </g>
    </g>
  </g>
</svg>
