<?xml version="1.0" encoding="UTF-8" standalone="no"?>
<!DOCTYPE svg PUBLIC "-//W3C//DTD SVG 1.1//EN" "http://www.w3.org/Graphics/SVG/1.1/DTD/svg11.dtd">
<svg xmlns:dc="http://purl.org/dc/elements/1.1/" version="1.1" xmlns="http://www.w3.org/2000/svg" xmlns:xl="http://www.w3.org/1999/xlink" viewBox="303.5 751.569 221.5 366.5" width="221.5" height="366.5">
  <defs>
    <marker orient="auto" overflow="visible" markerUnits="strokeWidth" id="FilledArrow_Marker" stroke-linejoin="miter" stroke-miterlimit="10" viewBox="-1 -4 10 8" markerWidth="10" markerHeight="8" color="#01c853">
      <g>
        <path d="M 8 0 L 0 -3 L 0 3 Z" fill="currentColor" stroke="currentColor" stroke-width="1"/>
      </g>
    </marker>
  </defs>
  <g id="Canvas_1" fill-opacity="1" stroke-dasharray="none" stroke="none" stroke-opacity="1" fill="none">
    <title>Canvas 1</title>
    <g id="Canvas_1_Layer_1">
      <title>Layer 1</title>
      <g id="Graphic_138"/>
      <g id="Graphic_137">
        <path d="M 371 1058.4451 L 404 1058.4451 C 406.20914 1058.4451 408 1060.236 408 1062.4451 L 408 1091.4451 C 408 1093.6543 406.20914 1095.4451 404 1095.4451 L 371 1095.4451 C 368.79086 1095.4451 367 1093.6543 367 1091.4451 L 367 1062.4451 C 367 1060.236 368.79086 1058.4451 371 1058.4451 Z" fill="#004bff" fill-opacity=".2"/>
        <path d="M 371 1058.4451 L 404 1058.4451 C 406.20914 1058.4451 408 1060.236 408 1062.4451 L 408 1091.4451 C 408 1093.6543 406.20914 1095.4451 404 1095.4451 L 371 1095.4451 C 368.79086 1095.4451 367 1093.6543 367 1091.4451 L 367 1062.4451 C 367 1060.236 368.79086 1058.4451 371 1058.4451 Z" stroke="#459bff" stroke-linecap="round" stroke-linejoin="round" stroke-width="1"/>
      </g>
      <g id="Graphic_136">
        <text transform="translate(425 1067.7211)" fill="black">
          <tspan font-family="Helvetica Neue" font-size="16" fill="black" x="0" y="15">init</tspan>
        </text>
      </g>
      <g id="Graphic_135">
        <text transform="translate(425 1026.9211)" fill="black">
          <tspan font-family="Helvetica Neue" font-size="16" fill="black" x="0" y="15">message 1</tspan>
        </text>
      </g>
      <g id="Graphic_134">
        <text transform="translate(425 986.1211)" fill="black">
          <tspan font-family="Helvetica Neue" font-size="16" fill="black" x="0" y="15">response 1</tspan>
        </text>
      </g>
      <g id="Graphic_133">
        <text transform="translate(425 945.3211)" fill="black">
          <tspan font-family="Helvetica Neue" font-size="16" fill="black" x="0" y="15">response 2</tspan>
        </text>
      </g>
      <g id="Graphic_132">
        <text transform="translate(425 904.5211)" fill="black">
          <tspan font-family="Helvetica Neue" font-size="16" fill="black" x="0" y="15">message 2</tspan>
        </text>
      </g>
      <g id="Graphic_131">
        <text transform="translate(425 863.721)" fill="black">
          <tspan font-family="Helvetica Neue" font-size="16" fill="black" x="0" y="15">message 3</tspan>
        </text>
      </g>
      <g id="Graphic_130">
        <text transform="translate(425 822.921)" fill="black">
          <tspan font-family="Helvetica Neue" font-size="16" fill="black" x="0" y="15">message 4</tspan>
        </text>
      </g>
      <g id="Graphic_129">
        <text transform="translate(425 782.121)" fill="black">
          <tspan font-family="Helvetica Neue" font-size="16" fill="black" x="0" y="15">response 3</tspan>
        </text>
      </g>
      <g id="Line_128">
        <line x1="322.5" y1="772.845" x2="322.5" y2="1091.669" marker-end="url(#FilledArrow_Marker)" stroke="#01c853" stroke-linecap="round" stroke-linejoin="round" stroke-width="1"/>
      </g>
      <g id="Graphic_127">
        <rect x="308.276" y="924.289" width="28.447998" height="56.512" fill="white"/>
        <text transform="translate(331.724 929.289) rotate(90)" fill="black">
          <tspan font-family="Helvetica Neue" font-size="16" fill="black" x="0" y="15">STDIN</tspan>
        </text>
      </g>
      <g id="Graphic_126">
        <path d="M 371 1017.6451 L 404 1017.6451 C 406.20914 1017.6451 408 1019.436 408 1021.6451 L 408 1050.6451 C 408 1052.8543 406.20914 1054.6451 404 1054.6451 L 371 1054.6451 C 368.79086 1054.6451 367 1052.8543 367 1050.6451 L 367 1021.6451 C 367 1019.436 368.79086 1017.6451 371 1017.6451 Z" fill="red" fill-opacity=".15"/>
        <path d="M 371 1017.6451 L 404 1017.6451 C 406.20914 1017.6451 408 1019.436 408 1021.6451 L 408 1050.6451 C 408 1052.8543 406.20914 1054.6451 404 1054.6451 L 371 1054.6451 C 368.79086 1054.6451 367 1052.8543 367 1050.6451 L 367 1021.6451 C 367 1019.436 368.79086 1017.6451 371 1017.6451 Z" stroke="red" stroke-linecap="round" stroke-linejoin="round" stroke-width="1"/>
      </g>
      <g id="Graphic_125">
        <path d="M 371 895.2451 L 404 895.2451 C 406.20914 895.2451 408 897.0359 408 899.2451 L 408 928.2451 C 408 930.4542 406.20914 932.2451 404 932.2451 L 371 932.2451 C 368.79086 932.2451 367 930.4542 367 928.2451 L 367 899.2451 C 367 897.0359 368.79086 895.2451 371 895.2451 Z" fill="red" fill-opacity=".15"/>
        <path d="M 371 895.2451 L 404 895.2451 C 406.20914 895.2451 408 897.0359 408 899.2451 L 408 928.2451 C 408 930.4542 406.20914 932.2451 404 932.2451 L 371 932.2451 C 368.79086 932.2451 367 930.4542 367 928.2451 L 367 899.2451 C 367 897.0359 368.79086 895.2451 371 895.2451 Z" stroke="red" stroke-linecap="round" stroke-linejoin="round" stroke-width="1"/>
      </g>
      <g id="Graphic_124">
        <path d="M 371 854.445 L 404 854.445 C 406.20914 854.445 408 856.2359 408 858.445 L 408 887.445 C 408 889.6542 406.20914 891.445 404 891.445 L 371 891.445 C 368.79086 891.445 367 889.6542 367 887.445 L 367 858.445 C 367 856.2359 368.79086 854.445 371 854.445 Z" fill="red" fill-opacity=".15"/>
        <path d="M 371 854.445 L 404 854.445 C 406.20914 854.445 408 856.2359 408 858.445 L 408 887.445 C 408 889.6542 406.20914 891.445 404 891.445 L 371 891.445 C 368.79086 891.445 367 889.6542 367 887.445 L 367 858.445 C 367 856.2359 368.79086 854.445 371 854.445 Z" stroke="red" stroke-linecap="round" stroke-linejoin="round" stroke-width="1"/>
      </g>
      <g id="Graphic_123">
        <path d="M 371 813.645 L 404 813.645 C 406.20914 813.645 408 815.4359 408 817.645 L 408 846.645 C 408 848.8542 406.20914 850.645 404 850.645 L 371 850.645 C 368.79086 850.645 367 848.8542 367 846.645 L 367 817.645 C 367 815.4359 368.79086 813.645 371 813.645 Z" fill="red" fill-opacity=".15"/>
        <path d="M 371 813.645 L 404 813.645 C 406.20914 813.645 408 815.4359 408 817.645 L 408 846.645 C 408 848.8542 406.20914 850.645 404 850.645 L 371 850.645 C 368.79086 850.645 367 848.8542 367 846.645 L 367 817.645 C 367 815.4359 368.79086 813.645 371 813.645 Z" stroke="red" stroke-linecap="round" stroke-linejoin="round" stroke-width="1"/>
      </g>
      <g id="Graphic_122">
        <path d="M 371 976.8451 L 404 976.8451 C 406.20914 976.8451 408 978.636 408 980.8451 L 408 1009.8451 C 408 1012.0542 406.20914 1013.8451 404 1013.8451 L 371 1013.8451 C 368.79086 1013.8451 367 1012.0542 367 1009.8451 L 367 980.8451 C 367 978.636 368.79086 976.8451 371 976.8451 Z" fill="#00c653" fill-opacity=".2"/>
        <path d="M 371 976.8451 L 404 976.8451 C 406.20914 976.8451 408 978.636 408 980.8451 L 408 1009.8451 C 408 1012.0542 406.20914 1013.8451 404 1013.8451 L 371 1013.8451 C 368.79086 1013.8451 367 1012.0542 367 1009.8451 L 367 980.8451 C 367 978.636 368.79086 976.8451 371 976.8451 Z" stroke="#01c853" stroke-linecap="round" stroke-linejoin="round" stroke-width="1"/>
      </g>
      <g id="Graphic_121">
        <path d="M 371 936.0451 L 404 936.0451 C 406.20914 936.0451 408 937.8359 408 940.0451 L 408 969.0451 C 408 971.2542 406.20914 973.0451 404 973.0451 L 371 973.0451 C 368.79086 973.0451 367 971.2542 367 969.0451 L 367 940.0451 C 367 937.8359 368.79086 936.0451 371 936.0451 Z" fill="#00c653" fill-opacity=".2"/>
        <path d="M 371 936.0451 L 404 936.0451 C 406.20914 936.0451 408 937.8359 408 940.0451 L 408 969.0451 C 408 971.2542 406.20914 973.0451 404 973.0451 L 371 973.0451 C 368.79086 973.0451 367 971.2542 367 969.0451 L 367 940.0451 C 367 937.8359 368.79086 936.0451 371 936.0451 Z" stroke="#01c853" stroke-linecap="round" stroke-linejoin="round" stroke-width="1"/>
      </g>
      <g id="Graphic_120">
        <path d="M 371 772.845 L 404 772.845 C 406.20914 772.845 408 774.6359 408 776.845 L 408 805.845 C 408 808.0541 406.20914 809.845 404 809.845 L 371 809.845 C 368.79086 809.845 367 808.0541 367 805.845 L 367 776.845 C 367 774.6359 368.79086 772.845 371 772.845 Z" fill="#00c653" fill-opacity=".2"/>
        <path d="M 371 772.845 L 404 772.845 C 406.20914 772.845 408 774.6359 408 776.845 L 408 805.845 C 408 808.0541 406.20914 809.845 404 809.845 L 371 809.845 C 368.79086 809.845 367 808.0541 367 805.845 L 367 776.845 C 367 774.6359 368.79086 772.845 371 772.845 Z" stroke="#01c853" stroke-linecap="round" stroke-linejoin="round" stroke-width="1"/>
      </g>
    </g>
  </g>
</svg>
