<?xml version="1.0" encoding="UTF-8" standalone="no"?>
<!DOCTYPE svg PUBLIC "-//W3C//DTD SVG 1.1//EN" "http://www.w3.org/Graphics/SVG/1.1/DTD/svg11.dtd">
<svg xmlns:dc="http://purl.org/dc/elements/1.1/" version="1.1" xmlns="http://www.w3.org/2000/svg" xmlns:xl="http://www.w3.org/1999/xlink" viewBox="291.5 1203 221.5 366.5" width="221.5" height="366.5">
  <defs>
    <marker orient="auto" overflow="visible" markerUnits="strokeWidth" id="FilledArrow_Marker" stroke-linejoin="miter" stroke-miterlimit="10" viewBox="-1 -4 10 8" markerWidth="10" markerHeight="8" color="#01c853">
      <g>
        <path d="M 8 0 L 0 -3 L 0 3 Z" fill="currentColor" stroke="currentColor" stroke-width="1"/>
      </g>
    </marker>
  </defs>
  <g id="Canvas_1" fill-opacity="1" stroke-dasharray="none" stroke="none" stroke-opacity="1" fill="none">
    <title>Canvas 1</title>
    <g id="Canvas_1_Layer_1">
      <title>Layer 1</title>
      <g id="Graphic_77"/>
      <g id="Graphic_78">
        <path d="M 359 1509.8761 L 392 1509.8761 C 394.20914 1509.8761 396 1511.667 396 1513.8761 L 396 1542.8761 C 396 1545.0853 394.20914 1546.8761 392 1546.8761 L 359 1546.8761 C 356.79086 1546.8761 355 1545.0853 355 1542.8761 L 355 1513.8761 C 355 1511.667 356.79086 1509.8761 359 1509.8761 Z" fill="#004bff" fill-opacity=".3297251"/>
        <path d="M 359 1509.8761 L 392 1509.8761 C 394.20914 1509.8761 396 1511.667 396 1513.8761 L 396 1542.8761 C 396 1545.0853 394.20914 1546.8761 392 1546.8761 L 359 1546.8761 C 356.79086 1546.8761 355 1545.0853 355 1542.8761 L 355 1513.8761 C 355 1511.667 356.79086 1509.8761 359 1509.8761 Z" stroke="#459bff" stroke-linecap="round" stroke-linejoin="round" stroke-width="1"/>
      </g>
      <g id="Graphic_79">
        <text transform="translate(413 1519.1521)" fill="#d5d8e2">
          <tspan font-family="Helvetica Neue" font-size="16" fill="#d5d8e2" x="0" y="15">init</tspan>
        </text>
      </g>
      <g id="Graphic_81">
        <text transform="translate(413 1478.3521)" fill="#d5d8e2">
          <tspan font-family="Helvetica Neue" font-size="16" fill="#d5d8e2" x="0" y="15">message 1</tspan>
        </text>
      </g>
      <g id="Graphic_83">
        <text transform="translate(413 1437.5521)" fill="#d5d8e2">
          <tspan font-family="Helvetica Neue" font-size="16" fill="#d5d8e2" x="0" y="15">response 1</tspan>
        </text>
      </g>
      <g id="Graphic_85">
        <text transform="translate(413 1396.752)" fill="#d5d8e2">
          <tspan font-family="Helvetica Neue" font-size="16" fill="#d5d8e2" x="0" y="15">response 2</tspan>
        </text>
      </g>
      <g id="Graphic_87">
        <text transform="translate(413 1355.952)" fill="#d5d8e2">
          <tspan font-family="Helvetica Neue" font-size="16" fill="#d5d8e2" x="0" y="15">message 2</tspan>
        </text>
      </g>
      <g id="Graphic_89">
        <text transform="translate(413 1315.152)" fill="#d5d8e2">
          <tspan font-family="Helvetica Neue" font-size="16" fill="#d5d8e2" x="0" y="15">message 3</tspan>
        </text>
      </g>
      <g id="Graphic_91">
        <text transform="translate(413 1274.352)" fill="#d5d8e2">
          <tspan font-family="Helvetica Neue" font-size="16" fill="#d5d8e2" x="0" y="15">message 4</tspan>
        </text>
      </g>
      <g id="Graphic_93">
        <text transform="translate(413 1233.552)" fill="#d5d8e2">
          <tspan font-family="Helvetica Neue" font-size="16" fill="#d5d8e2" x="0" y="15">response 3</tspan>
        </text>
      </g>
      <g id="Line_96">
        <line x1="310.5" y1="1224.276" x2="310.5" y2="1543.1" marker-end="url(#FilledArrow_Marker)" stroke="#01c853" stroke-linecap="round" stroke-linejoin="round" stroke-width="1"/>
      </g>
      <g id="Graphic_97">
        <rect x="296.276" y="1375.72" width="28.447998" height="56.512" fill="black"/>
        <text transform="translate(319.724 1380.72) rotate(90)" fill="#d5d8e2">
          <tspan font-family="Helvetica Neue" font-size="16" fill="#d5d8e2" x="0" y="15">STDIN</tspan>
        </text>
      </g>
      <g id="Graphic_112">
        <path d="M 359 1469.0761 L 392 1469.0761 C 394.20914 1469.0761 396 1470.867 396 1473.0761 L 396 1502.0761 C 396 1504.2853 394.20914 1506.0761 392 1506.0761 L 359 1506.0761 C 356.79086 1506.0761 355 1504.2853 355 1502.0761 L 355 1473.0761 C 355 1470.867 356.79086 1469.0761 359 1469.0761 Z" fill="#f8ff00" fill-opacity=".2"/>
        <path d="M 359 1469.0761 L 392 1469.0761 C 394.20914 1469.0761 396 1470.867 396 1473.0761 L 396 1502.0761 C 396 1504.2853 394.20914 1506.0761 392 1506.0761 L 359 1506.0761 C 356.79086 1506.0761 355 1504.2853 355 1502.0761 L 355 1473.0761 C 355 1470.867 356.79086 1469.0761 359 1469.0761 Z" stroke="#fff600" stroke-linecap="round" stroke-linejoin="round" stroke-width="1"/>
      </g>
      <g id="Graphic_113">
        <path d="M 359 1346.676 L 392 1346.676 C 394.20914 1346.676 396 1348.4669 396 1350.676 L 396 1379.676 C 396 1381.8852 394.20914 1383.676 392 1383.676 L 359 1383.676 C 356.79086 1383.676 355 1381.8852 355 1379.676 L 355 1350.676 C 355 1348.4669 356.79086 1346.676 359 1346.676 Z" fill="#f8ff00" fill-opacity=".2"/>
        <path d="M 359 1346.676 L 392 1346.676 C 394.20914 1346.676 396 1348.4669 396 1350.676 L 396 1379.676 C 396 1381.8852 394.20914 1383.676 392 1383.676 L 359 1383.676 C 356.79086 1383.676 355 1381.8852 355 1379.676 L 355 1350.676 C 355 1348.4669 356.79086 1346.676 359 1346.676 Z" stroke="#fff600" stroke-linecap="round" stroke-linejoin="round" stroke-width="1"/>
      </g>
      <g id="Graphic_114">
        <path d="M 359 1305.876 L 392 1305.876 C 394.20914 1305.876 396 1307.6669 396 1309.876 L 396 1338.876 C 396 1341.0852 394.20914 1342.876 392 1342.876 L 359 1342.876 C 356.79086 1342.876 355 1341.0852 355 1338.876 L 355 1309.876 C 355 1307.6669 356.79086 1305.876 359 1305.876 Z" fill="#f8ff00" fill-opacity=".2"/>
        <path d="M 359 1305.876 L 392 1305.876 C 394.20914 1305.876 396 1307.6669 396 1309.876 L 396 1338.876 C 396 1341.0852 394.20914 1342.876 392 1342.876 L 359 1342.876 C 356.79086 1342.876 355 1341.0852 355 1338.876 L 355 1309.876 C 355 1307.6669 356.79086 1305.876 359 1305.876 Z" stroke="#fff600" stroke-linecap="round" stroke-linejoin="round" stroke-width="1"/>
      </g>
      <g id="Graphic_115">
        <path d="M 359 1265.076 L 392 1265.076 C 394.20914 1265.076 396 1266.8669 396 1269.076 L 396 1298.076 C 396 1300.2852 394.20914 1302.076 392 1302.076 L 359 1302.076 C 356.79086 1302.076 355 1300.2852 355 1298.076 L 355 1269.076 C 355 1266.8669 356.79086 1265.076 359 1265.076 Z" fill="#f8ff00" fill-opacity=".2"/>
        <path d="M 359 1265.076 L 392 1265.076 C 394.20914 1265.076 396 1266.8669 396 1269.076 L 396 1298.076 C 396 1300.2852 394.20914 1302.076 392 1302.076 L 359 1302.076 C 356.79086 1302.076 355 1300.2852 355 1298.076 L 355 1269.076 C 355 1266.8669 356.79086 1265.076 359 1265.076 Z" stroke="#fff600" stroke-linecap="round" stroke-linejoin="round" stroke-width="1"/>
      </g>
      <g id="Graphic_116">
        <path d="M 359 1428.2761 L 392 1428.2761 C 394.20914 1428.2761 396 1430.067 396 1432.2761 L 396 1461.2761 C 396 1463.4852 394.20914 1465.2761 392 1465.2761 L 359 1465.2761 C 356.79086 1465.2761 355 1463.4852 355 1461.2761 L 355 1432.2761 C 355 1430.067 356.79086 1428.2761 359 1428.2761 Z" fill="#00c653" fill-opacity=".2"/>
        <path d="M 359 1428.2761 L 392 1428.2761 C 394.20914 1428.2761 396 1430.067 396 1432.2761 L 396 1461.2761 C 396 1463.4852 394.20914 1465.2761 392 1465.2761 L 359 1465.2761 C 356.79086 1465.2761 355 1463.4852 355 1461.2761 L 355 1432.2761 C 355 1430.067 356.79086 1428.2761 359 1428.2761 Z" stroke="#01c853" stroke-linecap="round" stroke-linejoin="round" stroke-width="1"/>
      </g>
      <g id="Graphic_117">
        <path d="M 359 1387.476 L 392 1387.476 C 394.20914 1387.476 396 1389.267 396 1391.476 L 396 1420.476 C 396 1422.6852 394.20914 1424.476 392 1424.476 L 359 1424.476 C 356.79086 1424.476 355 1422.6852 355 1420.476 L 355 1391.476 C 355 1389.267 356.79086 1387.476 359 1387.476 Z" fill="#00c653" fill-opacity=".2"/>
        <path d="M 359 1387.476 L 392 1387.476 C 394.20914 1387.476 396 1389.267 396 1391.476 L 396 1420.476 C 396 1422.6852 394.20914 1424.476 392 1424.476 L 359 1424.476 C 356.79086 1424.476 355 1422.6852 355 1420.476 L 355 1391.476 C 355 1389.267 356.79086 1387.476 359 1387.476 Z" stroke="#01c853" stroke-linecap="round" stroke-linejoin="round" stroke-width="1"/>
      </g>
      <g id="Graphic_118">
        <path d="M 359 1224.276 L 392 1224.276 C 394.20914 1224.276 396 1226.0669 396 1228.276 L 396 1257.276 C 396 1259.4851 394.20914 1261.276 392 1261.276 L 359 1261.276 C 356.79086 1261.276 355 1259.4851 355 1257.276 L 355 1228.276 C 355 1226.0669 356.79086 1224.276 359 1224.276 Z" fill="#00c653" fill-opacity=".2"/>
        <path d="M 359 1224.276 L 392 1224.276 C 394.20914 1224.276 396 1226.0669 396 1228.276 L 396 1257.276 C 396 1259.4851 394.20914 1261.276 392 1261.276 L 359 1261.276 C 356.79086 1261.276 355 1259.4851 355 1257.276 L 355 1228.276 C 355 1226.0669 356.79086 1224.276 359 1224.276 Z" stroke="#01c853" stroke-linecap="round" stroke-linejoin="round" stroke-width="1"/>
      </g>
    </g>
  </g>
</svg>
