<?xml version="1.0" encoding="UTF-8" standalone="no"?>
<!DOCTYPE svg PUBLIC "-//W3C//DTD SVG 1.1//EN" "http://www.w3.org/Graphics/SVG/1.1/DTD/svg11.dtd">
<svg xmlns:dc="http://purl.org/dc/elements/1.1/" version="1.1" xmlns="http://www.w3.org/2000/svg" xmlns:xl="http://www.w3.org/1999/xlink" viewBox="643 1212 347 366.5" width="347" height="366.5">
  <defs/>
  <g id="Canvas_1" fill-opacity="1" stroke-dasharray="none" stroke="none" stroke-opacity="1" fill="none">
    <title>Canvas 1</title>
    <g id="Canvas_1_Layer_1">
      <title>Layer 1</title>
      <g id="Graphic_76"/>
      <g id="Graphic_98">
        <path d="M 663 1527.086 L 696 1527.086 C 698.2091 1527.086 700 1528.8769 700 1531.086 L 700 1560.086 C 700 1562.2951 698.2091 1564.086 696 1564.086 L 663 1564.086 C 660.7909 1564.086 659 1562.2951 659 1560.086 L 659 1531.086 C 659 1528.8769 660.7909 1527.086 663 1527.086 Z" fill="#f8ff00" fill-opacity=".2"/>
        <path d="M 663 1527.086 L 696 1527.086 C 698.2091 1527.086 700 1528.8769 700 1531.086 L 700 1560.086 C 700 1562.2951 698.2091 1564.086 696 1564.086 L 663 1564.086 C 660.7909 1564.086 659 1562.2951 659 1560.086 L 659 1531.086 C 659 1528.8769 660.7909 1527.086 663 1527.086 Z" stroke="#fff600" stroke-linecap="round" stroke-linejoin="round" stroke-width="1"/>
      </g>
      <g id="Graphic_99">
        <path d="M 694 1484.862 L 727 1484.862 C 729.2091 1484.862 731 1486.6529 731 1488.862 L 731 1517.862 C 731 1520.0711 729.2091 1521.862 727 1521.862 L 694 1521.862 C 691.7909 1521.862 690 1520.0711 690 1517.862 L 690 1488.862 C 690 1486.6529 691.7909 1484.862 694 1484.862 Z" fill="#f8ff00" fill-opacity=".2"/>
        <path d="M 694 1484.862 L 727 1484.862 C 729.2091 1484.862 731 1486.6529 731 1488.862 L 731 1517.862 C 731 1520.0711 729.2091 1521.862 727 1521.862 L 694 1521.862 C 691.7909 1521.862 690 1520.0711 690 1517.862 L 690 1488.862 C 690 1486.6529 691.7909 1484.862 694 1484.862 Z" stroke="#fff600" stroke-linecap="round" stroke-linejoin="round" stroke-width="1"/>
      </g>
      <g id="Graphic_100">
        <path d="M 727 1442.638 L 760 1442.638 C 762.2091 1442.638 764 1444.4289 764 1446.638 L 764 1475.638 C 764 1477.8471 762.2091 1479.638 760 1479.638 L 727 1479.638 C 724.7909 1479.638 723 1477.8471 723 1475.638 L 723 1446.638 C 723 1444.4289 724.7909 1442.638 727 1442.638 Z" fill="#f8ff00" fill-opacity=".2"/>
        <path d="M 727 1442.638 L 760 1442.638 C 762.2091 1442.638 764 1444.4289 764 1446.638 L 764 1475.638 C 764 1477.8471 762.2091 1479.638 760 1479.638 L 727 1479.638 C 724.7909 1479.638 723 1477.8471 723 1475.638 L 723 1446.638 C 723 1444.4289 724.7909 1442.638 727 1442.638 Z" stroke="#fff600" stroke-linecap="round" stroke-linejoin="round" stroke-width="1"/>
      </g>
      <g id="Graphic_101">
        <path d="M 763.5 1400.414 L 796.5 1400.414 C 798.7091 1400.414 800.5 1402.2049 800.5 1404.414 L 800.5 1433.414 C 800.5 1435.6231 798.7091 1437.414 796.5 1437.414 L 763.5 1437.414 C 761.2909 1437.414 759.5 1435.6231 759.5 1433.414 L 759.5 1404.414 C 759.5 1402.2049 761.2909 1400.414 763.5 1400.414 Z" fill="#f8ff00" fill-opacity=".2"/>
        <path d="M 763.5 1400.414 L 796.5 1400.414 C 798.7091 1400.414 800.5 1402.2049 800.5 1404.414 L 800.5 1433.414 C 800.5 1435.6231 798.7091 1437.414 796.5 1437.414 L 763.5 1437.414 C 761.2909 1437.414 759.5 1435.6231 759.5 1433.414 L 759.5 1404.414 C 759.5 1402.2049 761.2909 1400.414 763.5 1400.414 Z" stroke="#fff600" stroke-linecap="round" stroke-linejoin="round" stroke-width="1"/>
      </g>
      <g id="Graphic_102">
        <path d="M 933 1527.086 L 966 1527.086 C 968.2091 1527.086 970 1528.8769 970 1531.086 L 970 1560.086 C 970 1562.2951 968.2091 1564.086 966 1564.086 L 933 1564.086 C 930.7909 1564.086 929 1562.2951 929 1560.086 L 929 1531.086 C 929 1528.8769 930.7909 1527.086 933 1527.086 Z" fill="#00c653" fill-opacity=".2"/>
        <path d="M 933 1527.086 L 966 1527.086 C 968.2091 1527.086 970 1528.8769 970 1531.086 L 970 1560.086 C 970 1562.2951 968.2091 1564.086 966 1564.086 L 933 1564.086 C 930.7909 1564.086 929 1562.2951 929 1560.086 L 929 1531.086 C 929 1528.8769 930.7909 1527.086 933 1527.086 Z" stroke="#01c853" stroke-linecap="round" stroke-linejoin="round" stroke-width="1"/>
      </g>
      <g id="Graphic_103">
        <path d="M 900.7 1485.81 L 933.7 1485.81 C 935.9092 1485.81 937.7 1487.6009 937.7 1489.81 L 937.7 1518.81 C 937.7 1521.0191 935.9092 1522.81 933.7 1522.81 L 900.7 1522.81 C 898.4909 1522.81 896.7 1521.0191 896.7 1518.81 L 896.7 1489.81 C 896.7 1487.6009 898.4909 1485.81 900.7 1485.81 Z" fill="#00c653" fill-opacity=".2"/>
        <path d="M 900.7 1485.81 L 933.7 1485.81 C 935.9092 1485.81 937.7 1487.6009 937.7 1489.81 L 937.7 1518.81 C 937.7 1521.0191 935.9092 1522.81 933.7 1522.81 L 900.7 1522.81 C 898.4909 1522.81 896.7 1521.0191 896.7 1518.81 L 896.7 1489.81 C 896.7 1487.6009 898.4909 1485.81 900.7 1485.81 Z" stroke="#01c853" stroke-linecap="round" stroke-linejoin="round" stroke-width="1"/>
      </g>
      <g id="Graphic_104">
        <path d="M 866.1 1444.534 L 899.1 1444.534 C 901.3092 1444.534 903.1 1446.3249 903.1 1448.534 L 903.1 1477.534 C 903.1 1479.7431 901.3092 1481.534 899.1 1481.534 L 866.1 1481.534 C 863.8909 1481.534 862.1 1479.7431 862.1 1477.534 L 862.1 1448.534 C 862.1 1446.3249 863.8909 1444.534 866.1 1444.534 Z" fill="#00c653" fill-opacity=".2"/>
        <path d="M 866.1 1444.534 L 899.1 1444.534 C 901.3092 1444.534 903.1 1446.3249 903.1 1448.534 L 903.1 1477.534 C 903.1 1479.7431 901.3092 1481.534 899.1 1481.534 L 866.1 1481.534 C 863.8909 1481.534 862.1 1479.7431 862.1 1477.534 L 862.1 1448.534 C 862.1 1446.3249 863.8909 1444.534 866.1 1444.534 Z" stroke="#01c853" stroke-linecap="round" stroke-linejoin="round" stroke-width="1"/>
      </g>
      <g id="Graphic_105">
        <path d="M 834.5 1403.258 L 867.5 1403.258 C 869.7091 1403.258 871.5 1405.0489 871.5 1407.258 L 871.5 1436.258 C 871.5 1438.4671 869.7091 1440.258 867.5 1440.258 L 834.5 1440.258 C 832.2909 1440.258 830.5 1438.4671 830.5 1436.258 L 830.5 1407.258 C 830.5 1405.0489 832.2909 1403.258 834.5 1403.258 Z" fill="#00c653" fill-opacity=".2"/>
        <path d="M 834.5 1403.258 L 867.5 1403.258 C 869.7091 1403.258 871.5 1405.0489 871.5 1407.258 L 871.5 1436.258 C 871.5 1438.4671 869.7091 1440.258 867.5 1440.258 L 834.5 1440.258 C 832.2909 1440.258 830.5 1438.4671 830.5 1436.258 L 830.5 1407.258 C 830.5 1405.0489 832.2909 1403.258 834.5 1403.258 Z" stroke="#01c853" stroke-linecap="round" stroke-linejoin="round" stroke-width="1"/>
      </g>
      <g id="Graphic_106">
        <path d="M 797.8107 1305 L 830.8107 1305 C 833.0198 1305 834.8107 1306.7909 834.8107 1309 L 834.8107 1338 C 834.8107 1340.2091 833.0198 1342 830.8107 1342 L 797.8107 1342 C 795.6016 1342 793.8107 1340.2091 793.8107 1338 L 793.8107 1309 C 793.8107 1306.7909 795.6016 1305 797.8107 1305 Z" fill="#f8ff00" fill-opacity=".2"/>
        <path d="M 797.8107 1305 L 830.8107 1305 C 833.0198 1305 834.8107 1306.7909 834.8107 1309 L 834.8107 1338 C 834.8107 1340.2091 833.0198 1342 830.8107 1342 L 797.8107 1342 C 795.6016 1342 793.8107 1340.2091 793.8107 1338 L 793.8107 1309 C 793.8107 1306.7909 795.6016 1305 797.8107 1305 Z" stroke="#fff600" stroke-linecap="round" stroke-linejoin="round" stroke-width="1"/>
      </g>
      <g id="Graphic_107">
        <path d="M 797.8107 1263.724 L 830.8107 1263.724 C 833.0198 1263.724 834.8107 1265.5149 834.8107 1267.724 L 834.8107 1296.724 C 834.8107 1298.9331 833.0198 1300.724 830.8107 1300.724 L 797.8107 1300.724 C 795.6016 1300.724 793.8107 1298.9331 793.8107 1296.724 L 793.8107 1267.724 C 793.8107 1265.5149 795.6016 1263.724 797.8107 1263.724 Z" fill="#00c653" fill-opacity=".2"/>
        <path d="M 797.8107 1263.724 L 830.8107 1263.724 C 833.0198 1263.724 834.8107 1265.5149 834.8107 1267.724 L 834.8107 1296.724 C 834.8107 1298.9331 833.0198 1300.724 830.8107 1300.724 L 797.8107 1300.724 C 795.6016 1300.724 793.8107 1298.9331 793.8107 1296.724 L 793.8107 1267.724 C 793.8107 1265.5149 795.6016 1263.724 797.8107 1263.724 Z" stroke="#01c853" stroke-linecap="round" stroke-linejoin="round" stroke-width="1"/>
      </g>
      <g id="Graphic_108">
        <path d="M 797.8107 1222.448 L 830.8107 1222.448 C 833.0198 1222.448 834.8107 1224.2389 834.8107 1226.448 L 834.8107 1255.448 C 834.8107 1257.6571 833.0198 1259.448 830.8107 1259.448 L 797.8107 1259.448 C 795.6016 1259.448 793.8107 1257.6571 793.8107 1255.448 L 793.8107 1226.448 C 793.8107 1224.2389 795.6016 1222.448 797.8107 1222.448 Z" fill="#00c653" fill-opacity=".2"/>
        <path d="M 797.8107 1222.448 L 830.8107 1222.448 C 833.0198 1222.448 834.8107 1224.2389 834.8107 1226.448 L 834.8107 1255.448 C 834.8107 1257.6571 833.0198 1259.448 830.8107 1259.448 L 797.8107 1259.448 C 795.6016 1259.448 793.8107 1257.6571 793.8107 1255.448 L 793.8107 1226.448 C 793.8107 1224.2389 795.6016 1222.448 797.8107 1222.448 Z" stroke="#01c853" stroke-linecap="round" stroke-linejoin="round" stroke-width="1"/>
      </g>
      <g id="Graphic_109">
        <path d="M 814.3107 1317.707 L 876.4889 1373.819 L 814.3107 1429.931 L 752.1325 1373.819 Z" fill="#ff4efc" fill-opacity=".2"/>
        <path d="M 814.3107 1317.707 L 876.4889 1373.819 L 814.3107 1429.931 L 752.1325 1373.819 Z" stroke="#f600e2" stroke-linecap="round" stroke-linejoin="round" stroke-width="1"/>
      </g>
      <g id="Graphic_110">
        <rect x="710" y="1358.405" width="222.48" height="28.447998" fill="black" fill-opacity=".0608614"/>
        <text transform="translate(715 1363.405)" fill="#d5d8e2">
          <tspan font-family="Helvetica Neue" font-size="16" fill="#d5d8e2" x="0" y="15">stream.partition(isResponse?)</tspan>
        </text>
      </g>
    </g>
  </g>
</svg>
